<?xml version="1.0" encoding="utf-8"?>
<!-- Generator: Adobe Illustrator 15.1.0, SVG Export Plug-In  -->
<!DOCTYPE svg PUBLIC "-//W3C//DTD SVG 1.1//EN" "http://www.w3.org/Graphics/SVG/1.1/DTD/svg11.dtd" [
	<!ENTITY ns_flows "http://ns.adobe.com/Flows/1.0/">
]>
<svg version="1.1"
	 xmlns="http://www.w3.org/2000/svg" xlink="http://www.w3.org/1999/xlink" a="http://ns.adobe.com/AdobeSVGViewerExtensions/3.0/"
	 x="0px" y="0px" width="81px" height="27px" viewBox="-4.205 -5 162 54" enable-background="new -4.205 -5 162 54"
	 xml:space="preserve">
<defs>
</defs>
<path fill="#C4122F" d="M132.67,0c-10.837,0-21.532,7.652-21.532,22.529c0,13.853,9.01,22.471,21.126,22.471
	c12.816,0,21.531-9.391,21.531-22.471C153.795,7.255,143.058,0,132.67,0 M132.438,36.025c-6.248,0-10.869-5.211-10.869-13.496
	c0-7.372,3.749-13.492,10.869-13.492c7.847,0,10.868,7.247,10.868,13.492C143.307,28.854,140.285,36.025,132.438,36.025"/>
<path fill="#C4122F" d="M90.416,18.814l-0.013,8.61h7.392v7.607c-0.61,0.396-2.59,0.96-5.225,0.96
	c-7.279,0-11.459-5.304-11.459-13.484c0-7.577,3.114-13.066,12.287-13.066c3.729,0,6.872,0.673,9.6,1.814l3.666-8.457
	C103.087,1.048,99.053,0,92.766,0C80.074,0,70.36,9.06,70.36,22.787c0,12.192,7.147,22.172,21.612,22.172
	c7.363,0,12.759-2.332,15.325-4.049l-0.006-22.096H90.416z"/>
<path fill="#C4122F" d="M59.711,27.36v-0.19c2.146-1.354,4.221-3.323,5.455-5.246c1.39-2.166,2.028-4.698,2.028-7.312
	c0-1.979-0.356-3.84-1.068-5.582c-0.675-1.782-1.782-3.404-3.325-4.712c-1.506-1.307-3.445-2.337-5.821-3.089
	c-2.375-0.751-5.266-1.127-8.671-1.127c-2.574,0-4.894,0.124-6.95,0.316c-2.229,0.207-3.754,0.393-5.88,0.736v43.093h10.098V29.842
	c1.238,0.055,2.168,0.061,3.521,0.023c0,0,1.301,0.46,2.974,2.611c1.983,2.548,4.388,6.533,5.824,11.771H69.86
	C67.225,36.621,64.509,29.555,59.711,27.36 M54.871,20.066c-1.428,1.107-3.674,1.771-6.088,1.771c-1.138,0-2.533-0.063-3.207-0.143
	V9.279c0.465-0.084,1.946-0.217,2.502-0.234c0.563-0.019,1.503-0.028,1.743-0.025c2.179,0.034,3.976,0.538,5.282,1.568
	c1.307,0.99,1.96,2.45,1.96,4.271C57.063,17.077,56.297,18.918,54.871,20.066"/>
<path fill="#C4122F" d="M14.059,35.043c-2.241,0-3.961-1.237-3.961-4.163v-4.658h16.566l-0.01-8.792H10.098V9.978h19.563
	l-0.008-9.265H0v33.219c0,6.819,2.665,10.315,10.241,10.315h20.229l-0.012-9.206C30.459,35.041,18.605,35.043,14.059,35.043"/>
</svg>
